<svg width="18" height="18" viewBox="0 0 18 18" fill="none" xmlns="http://www.w3.org/2000/svg">
<path d="M8.96484 17.9297C4.0166 17.9297 0 13.9131 0 8.96484C0 4.0166 4.0166 0 8.96484 0C13.9131 0 17.9297 4.0166 17.9297 8.96484C17.9297 13.9131 13.9131 17.9297 8.96484 17.9297ZM8.96484 11.9531C11.6104 11.9531 13.6406 12.9023 14.5283 13.9482C15.7148 12.6299 16.4355 10.8809 16.4355 8.96484C16.4355 4.83398 13.0957 1.49414 8.96484 1.49414C4.83398 1.49414 1.49414 4.83398 1.49414 8.96484C1.49414 10.8809 2.21484 12.6299 3.40137 13.9482C4.28906 12.9023 6.32812 11.9531 8.96484 11.9531ZM8.96484 10.459C7.27734 10.4414 5.95898 9.03516 5.9502 7.14551C5.94141 5.37012 7.27734 3.90234 8.96484 3.90234C10.6523 3.90234 11.9795 5.37012 11.9795 7.14551C11.9795 9.03516 10.6611 10.4766 8.96484 10.459Z" fill="#FEFEFE"/>
</svg>
