<svg width="19" height="19" viewBox="0 0 19 19" fill="none" xmlns="http://www.w3.org/2000/svg">
<path d="M8.5166 18.791C7.83984 18.791 7.3125 18.3779 7.16309 17.7275L6.77637 16.084L6.49512 15.9873L5.07129 16.8662C4.5 17.2178 3.83203 17.1387 3.34863 16.6553L2.12695 15.4336C1.64355 14.9502 1.55566 14.2822 1.91602 13.7197L2.80371 12.2959L2.70703 12.0322L1.06348 11.6455C0.421875 11.4961 0 10.96 0 10.292V8.55176C0 7.88379 0.413086 7.35645 1.06348 7.19824L2.68945 6.80273L2.79492 6.52148L1.90723 5.09766C1.54688 4.53516 1.62598 3.87598 2.11816 3.38379L3.33984 2.15332C3.81445 1.67871 4.48242 1.59082 5.05371 1.94238L6.47754 2.82129L6.77637 2.70703L7.16309 1.06348C7.3125 0.413086 7.83984 0 8.5166 0H10.292C10.9688 0 11.4961 0.413086 11.6455 1.06348L12.0234 2.70703L12.3223 2.82129L13.7549 1.94238C14.3262 1.59082 14.9854 1.67871 15.46 2.15332L16.6904 3.38379C17.1826 3.87598 17.2529 4.53516 16.9014 5.09766L16.0049 6.52148L16.1191 6.80273L17.7451 7.19824C18.3955 7.35645 18.8086 7.88379 18.8086 8.55176V10.292C18.8086 10.96 18.3867 11.4961 17.7451 11.6455L16.1016 12.0322L15.9961 12.2959L16.8926 13.7197C17.2441 14.2822 17.165 14.9502 16.6816 15.4336L15.4512 16.6553C14.9678 17.1387 14.3086 17.2178 13.7373 16.8662L12.3047 15.9873L12.0234 16.084L11.6455 17.7275C11.4961 18.3779 10.9688 18.791 10.292 18.791H8.5166ZM8.65723 17.4199H10.1514C10.3008 17.4199 10.3799 17.3584 10.3975 17.2178L10.9336 15.0381C11.4697 14.9062 11.9619 14.6953 12.3398 14.458L14.2559 15.6357C14.3701 15.7148 14.4844 15.7061 14.5898 15.5918L15.6182 14.5547C15.7236 14.458 15.7236 14.3525 15.6533 14.2295L14.4756 12.3311C14.6865 11.9619 14.9062 11.4609 15.0469 10.9248L17.2354 10.4062C17.3672 10.3799 17.4375 10.3008 17.4375 10.1514V8.68359C17.4375 8.52539 17.376 8.45508 17.2354 8.42871L15.0557 7.90137C14.915 7.33008 14.6602 6.81152 14.4932 6.48633L15.6621 4.58789C15.7412 4.45605 15.7412 4.35059 15.6357 4.24512L14.5986 3.22559C14.4844 3.12012 14.3965 3.11133 14.2559 3.18164L12.3486 4.3418C11.9531 4.13086 11.4785 3.91113 10.9336 3.77051L10.3975 1.57324C10.3799 1.43262 10.3008 1.37109 10.1514 1.37109H8.65723C8.50781 1.37109 8.42871 1.43262 8.40234 1.57324L7.88379 3.75293C7.35645 3.90234 6.82031 4.12207 6.44238 4.33301L4.54395 3.18164C4.41211 3.11133 4.31543 3.12012 4.20996 3.22559L3.16406 4.24512C3.06738 4.35059 3.05859 4.45605 3.1377 4.58789L4.30664 6.48633C4.14844 6.81152 3.88477 7.33008 3.74414 7.90137L1.57324 8.42871C1.42383 8.45508 1.37109 8.52539 1.37109 8.68359V10.1514C1.37109 10.3008 1.43262 10.3799 1.57324 10.4062L3.75293 10.9248C3.89355 11.4609 4.12207 11.9619 4.32422 12.3311L3.14648 14.2295C3.07617 14.3525 3.08496 14.458 3.18164 14.5547L4.21875 15.5918C4.31543 15.7061 4.43848 15.7148 4.54395 15.6357L6.45996 14.458C6.83789 14.6953 7.33887 14.9062 7.875 15.0381L8.40234 17.2178C8.42871 17.3584 8.50781 17.4199 8.65723 17.4199ZM9.4043 12.7441C7.5498 12.7441 6.05566 11.25 6.05566 9.39551C6.05566 7.54102 7.5498 6.04688 9.4043 6.04688C11.2588 6.04688 12.7529 7.54102 12.7529 9.39551C12.7529 11.25 11.2588 12.7441 9.4043 12.7441ZM9.4043 11.3818C10.5029 11.3818 11.3906 10.4941 11.3906 9.39551C11.3906 8.29688 10.5029 7.40918 9.4043 7.40918C8.30566 7.40918 7.41797 8.29688 7.41797 9.39551C7.41797 10.4941 8.30566 11.3818 9.4043 11.3818Z" fill="#FEFEFE"/>
</svg>
