<svg width="24" height="24" viewBox="0 0 24 24" fill="none" xmlns="http://www.w3.org/2000/svg">
<path d="M6.4541 3.0498C6.50684 2.30273 6.92871 1.91602 7.7373 1.91602H16.2539C17.0713 1.91602 17.4932 2.30273 17.5459 3.0498H6.4541ZM4.64355 5.48438C4.77539 4.68457 5.15332 4.24512 6.03223 4.24512H17.9678C18.8467 4.24512 19.2246 4.68457 19.3564 5.48438H4.64355ZM5.54883 21.375C3.70312 21.375 2.78906 20.4609 2.78906 18.6504V9.62402C2.78906 7.81348 3.70312 6.89941 5.54883 6.89941H18.4424C20.2705 6.89941 21.2021 7.81348 21.2021 9.62402V18.6504C21.2021 20.4609 20.2705 21.375 18.4424 21.375H5.54883ZM4.2041 9.70312V17.7188L6.33105 15.873C6.69141 15.5654 7.04297 15.3896 7.4209 15.3896C7.8252 15.3896 8.20312 15.5566 8.56348 15.8818L10.0928 17.2441L13.916 13.8691C14.3115 13.5176 14.7246 13.3682 15.1904 13.3682C15.6475 13.3682 16.1045 13.5352 16.4736 13.8779L19.7871 17.0068V9.70312C19.7871 8.78906 19.2861 8.31445 18.416 8.31445H5.56641C4.6875 8.31445 4.2041 8.78906 4.2041 9.70312ZM9.40723 14.0889C8.2998 14.0889 7.40332 13.166 7.40332 12.0674C7.40332 10.9688 8.2998 10.0635 9.40723 10.0635C10.5146 10.0635 11.4199 10.9688 11.4199 12.0674C11.4199 13.166 10.5146 14.0889 9.40723 14.0889Z" fill="#FEFEFE"/>
</svg>
