<svg width="24" height="24" viewBox="0 0 24 24" fill="none" xmlns="http://www.w3.org/2000/svg">
<path d="M12 19.5645C10.1455 19.5645 8.41406 19.2129 6.92871 18.5625C6.02344 19.1865 4.80176 19.5645 3.70312 19.5645C2.78906 19.5645 2.42871 18.6064 3.12305 18.0176C3.52734 17.666 3.66797 17.2881 3.66797 16.8223C3.66797 16.4619 3.51855 16.0312 3.10547 15.416C2.26172 14.1768 1.77832 12.6475 1.77832 11.0039C1.77832 6.0293 6.09375 2.45215 12 2.45215C17.8975 2.45215 22.2217 6.0293 22.2217 11.0039C22.2217 15.9609 17.9062 19.5645 12 19.5645ZM12 18.1494C17.168 18.1494 20.8066 15.126 20.8066 11.0039C20.8066 6.88184 17.168 3.86719 12 3.86719C6.83203 3.86719 3.19336 6.88184 3.19336 11.0039C3.19336 12.3574 3.58008 13.5967 4.2832 14.6162C4.8457 15.46 5.08301 16.1719 5.08301 16.8223C5.08301 17.2793 4.95996 17.6309 4.77539 17.9385C5.22363 17.8418 5.66309 17.6396 6.04102 17.4023C6.57715 17.0859 6.98145 17.0156 7.54395 17.2617C8.81836 17.833 10.3213 18.1494 12 18.1494ZM11.8242 12.8232C11.3672 12.8232 11.1211 12.5859 11.1211 12.1289V12.0146C11.1211 11.1533 11.5957 10.6875 12.2197 10.248C12.9932 9.71191 13.3623 9.42188 13.3623 8.82422C13.3623 8.15625 12.8438 7.69922 12.0352 7.69922C11.4551 7.69922 10.9893 7.99805 10.6816 8.50781L10.5234 8.71875C10.3652 8.92969 10.1807 9.07031 9.88184 9.07031C9.58301 9.07031 9.27539 8.85938 9.27539 8.46387C9.27539 8.31445 9.30176 8.17383 9.3457 8.0332C9.5918 7.22461 10.585 6.50391 12.0967 6.50391C13.5908 6.50391 14.8916 7.29492 14.8916 8.75391C14.8916 9.7998 14.2852 10.3184 13.4326 10.8809C12.8174 11.2852 12.5273 11.5928 12.5273 12.0938V12.1992C12.5273 12.542 12.2637 12.8232 11.8242 12.8232ZM11.7979 15.4424C11.2969 15.4424 10.8574 15.0293 10.8574 14.5283C10.8574 14.0273 11.2881 13.6143 11.7979 13.6143C12.3164 13.6143 12.7471 14.0186 12.7471 14.5283C12.7471 15.0381 12.3076 15.4424 11.7979 15.4424Z" fill="#1C1C25"/>
</svg>
