<svg width="24" height="24" viewBox="0 0 24 24" fill="none" xmlns="http://www.w3.org/2000/svg">
<path d="M8.73926 20.9531C7.30664 20.9531 6.34863 20.0391 6.34863 18.668V4.63184C6.34863 3.26074 7.30664 2.34668 8.73926 2.34668H15.252C16.6846 2.34668 17.6426 3.26074 17.6426 4.63184V18.668C17.6426 20.0391 16.6846 20.9531 15.252 20.9531H8.73926ZM8.92383 19.5381H15.0762C15.8145 19.5381 16.2275 19.1426 16.2275 18.4395V4.86035C16.2275 4.15723 15.8145 3.76172 15.0762 3.76172H13.9512C13.8105 3.76172 13.7402 3.83203 13.7402 3.96387V4.16602C13.7402 4.53516 13.5029 4.78125 13.1338 4.78125H10.8662C10.5059 4.78125 10.2598 4.53516 10.2598 4.16602V3.96387C10.2598 3.83203 10.1895 3.76172 10.0488 3.76172H8.92383C8.17676 3.76172 7.76367 4.15723 7.76367 4.86035V18.4395C7.76367 19.1426 8.17676 19.5381 8.92383 19.5381ZM10.1367 18.8965C9.89941 18.8965 9.72363 18.7295 9.72363 18.4834C9.72363 18.2373 9.89941 18.0791 10.1367 18.0791H13.8721C14.1094 18.0791 14.2764 18.2373 14.2764 18.4834C14.2764 18.7295 14.1094 18.8965 13.8721 18.8965H10.1367Z" fill="#FEFEFE"/>
</svg>
