<svg width="25" height="24" viewBox="0 0 25 24" fill="none" xmlns="http://www.w3.org/2000/svg">
<path d="M16.8047 11.6543C14.7129 11.6543 13.0078 9.80859 13.0078 7.5498C13.0078 5.31738 14.7129 3.51562 16.8047 3.51562C18.9053 3.51562 20.6016 5.28223 20.6016 7.53223C20.6016 9.7998 18.8965 11.6543 16.8047 11.6543ZM6.67969 11.7334C4.86914 11.7334 3.38379 10.1162 3.38379 8.12988C3.38379 6.1875 4.86914 4.58789 6.67969 4.58789C8.50781 4.58789 9.97559 6.16113 9.97559 8.1123C9.97559 10.1074 8.49023 11.7334 6.67969 11.7334ZM16.8047 10.3271C18.0967 10.3271 19.1865 9.08789 19.1865 7.53223C19.1865 5.99414 18.1143 4.84277 16.8047 4.84277C15.4951 4.84277 14.4229 6.02051 14.4229 7.5498C14.4229 9.10547 15.5215 10.3271 16.8047 10.3271ZM6.67969 10.4238C7.76074 10.4238 8.6748 9.39551 8.6748 8.1123C8.6748 6.87305 7.78711 5.89746 6.67969 5.89746C5.58984 5.89746 4.69336 6.89062 4.69336 8.12988C4.69336 9.39551 5.59863 10.4238 6.67969 10.4238ZM1.78418 19.793C0.597656 19.793 0 19.3096 0 18.3252C0 15.4072 2.98828 12.7354 6.6709 12.7354C8.12109 12.7354 9.4834 13.1221 10.6172 13.8604C10.2217 14.1416 9.89648 14.4492 9.62402 14.8008C8.77148 14.2998 7.76953 14.0361 6.6709 14.0361C3.79688 14.0361 1.30957 16.0664 1.30957 18.2461C1.30957 18.4219 1.38867 18.4922 1.57324 18.4922H8.00684C7.94531 19.0283 8.26172 19.5557 8.68359 19.793H1.78418ZM11.2764 19.793C9.81738 19.793 9.12305 19.3535 9.12305 18.3867C9.12305 16.084 12.0322 12.7529 16.7959 12.7529C21.5684 12.7529 24.4775 16.084 24.4775 18.3867C24.4775 19.3535 23.7832 19.793 22.3154 19.793H11.2764ZM10.8545 18.4658H22.7373C22.9658 18.4658 23.0625 18.4043 23.0625 18.2197C23.0625 16.7695 20.8301 14.0801 16.7959 14.0801C12.7705 14.0801 10.5381 16.7695 10.5381 18.2197C10.5381 18.4043 10.626 18.4658 10.8545 18.4658Z" fill="#FEFEFE"/>
</svg>
