<svg width="29" height="20" viewBox="0 0 29 20" fill="none" xmlns="http://www.w3.org/2000/svg">
<path d="M4.57031 19.2656C1.71094 19.2656 0 17.6016 0 14.7422V4.51172C0 1.66406 1.83984 0 4.57031 0H16.8164C19.6758 0 21.3867 1.66406 21.3867 4.51172V6.12891L25.8164 2.37891C26.2852 1.99219 26.8008 1.72266 27.2812 1.72266C28.3125 1.72266 28.9922 2.48438 28.9922 3.57422V15.6914C28.9922 16.7812 28.3125 17.543 27.2812 17.543C26.8008 17.543 26.2852 17.2734 25.8164 16.8867L21.3867 13.1367V14.7422C21.3867 17.6016 19.6758 19.2656 16.8164 19.2656H4.57031ZM4.89844 17.4961H16.4883C18.3984 17.4961 19.5 16.5 19.5 14.4727V4.79297C19.5 2.75391 18.3984 1.75781 16.4883 1.75781H4.89844C2.97656 1.75781 1.88672 2.75391 1.88672 4.79297V14.4727C1.88672 16.5 2.97656 17.4961 4.89844 17.4961ZM26.6953 15.293C26.8008 15.3633 26.8711 15.4219 26.9766 15.4219C27.1172 15.4219 27.1758 15.3164 27.1758 15.1523V4.11328C27.1758 3.94922 27.1172 3.83203 26.9766 3.83203C26.8711 3.83203 26.8008 3.89062 26.6953 3.97266L21.3867 8.35547V10.9102L26.6953 15.293Z" fill="#1C1C25"/>
</svg>
