<svg width="22" height="22" viewBox="0 0 22 22" fill="none" xmlns="http://www.w3.org/2000/svg">
<rect x="0.75" y="0.75" width="20" height="20" rx="8" stroke="#006FFF" stroke-width="1.5"/>
<path d="M9.32812 16.9121C8.98633 16.9121 8.7334 16.7686 8.49414 16.4746L4.95312 12.0449C4.78223 11.833 4.70703 11.6348 4.70703 11.4297C4.70703 10.958 5.05566 10.6162 5.53418 10.6162C5.83496 10.6162 6.04004 10.7256 6.23828 10.9922L9.30078 14.9229L15.2412 5.48926C15.4463 5.16797 15.6445 5.05176 15.9795 5.05176C16.458 5.05176 16.7861 5.37988 16.7861 5.85156C16.7861 6.03613 16.7314 6.22754 16.5879 6.44629L10.1621 16.4678C9.96387 16.7617 9.69043 16.9121 9.32812 16.9121Z" fill="#006FFF"/>
</svg>
