<svg width="12" height="18" viewBox="0 0 12 18" fill="none" xmlns="http://www.w3.org/2000/svg">
<path d="M1.97754 17.2354C0.685547 17.2354 0 16.5322 0 15.1436V9.08789C0 7.86621 0.536133 7.18066 1.53809 7.03125V4.9043C1.53809 1.59961 3.7002 0 5.99414 0C8.29688 0 10.459 1.59961 10.459 4.9043V7.03125C11.4697 7.18066 11.9971 7.875 11.9971 9.08789V15.1436C11.9971 16.5322 11.3115 17.2354 10.0195 17.2354H1.97754ZM2.93555 4.71973V7.00488H9.07031V4.71973C9.07031 2.49609 7.6377 1.32715 5.99414 1.32715C4.35059 1.32715 2.93555 2.49609 2.93555 4.71973ZM2.02148 15.9082H9.97559C10.3623 15.9082 10.5732 15.6709 10.5732 15.2402V8.99121C10.5732 8.56055 10.3623 8.33203 9.97559 8.33203H2.02148C1.64355 8.33203 1.42383 8.56055 1.42383 8.99121V15.2402C1.42383 15.6709 1.64355 15.9082 2.02148 15.9082Z" fill="#FEFEFE"/>
</svg>
