<svg width="20" height="19" viewBox="0 0 20 19" fill="none" xmlns="http://www.w3.org/2000/svg">
<path d="M3.84961 18.4922C3.48926 18.2197 3.41016 17.7715 3.62988 17.1299L5.4668 11.6631L0.773438 8.28809C0.228516 7.90137 0 7.49707 0.149414 7.05762C0.290039 6.63574 0.703125 6.4248 1.37988 6.43359L7.13672 6.46875L8.88574 0.975586C9.09668 0.325195 9.41309 0 9.86133 0C10.3184 0 10.6348 0.325195 10.8457 0.975586L12.5947 6.46875L18.3516 6.43359C19.0283 6.4248 19.4414 6.63574 19.582 7.05762C19.7227 7.49707 19.5029 7.90137 18.958 8.28809L14.2646 11.6631L16.1016 17.1299C16.3213 17.7715 16.2422 18.2197 15.8818 18.4922C15.5127 18.7734 15.0645 18.6768 14.5195 18.2812L9.86133 14.8623L5.21191 18.2812C4.66699 18.6768 4.20996 18.7734 3.84961 18.4922ZM9.86133 13.3506C10.0195 13.3418 10.1689 13.4033 10.3096 13.5088L14.5371 16.7344C14.5723 16.7607 14.5986 16.7783 14.6162 16.752C14.6338 16.7344 14.625 16.7256 14.6162 16.6729L12.8672 11.6455C12.7441 11.3027 12.8145 11.0303 13.1221 10.8193L17.499 7.7959C17.5342 7.76953 17.5518 7.75195 17.543 7.72559C17.5342 7.69922 17.5166 7.69922 17.4639 7.69922L12.1465 7.7959C11.7861 7.80469 11.5576 7.65527 11.4434 7.29492L9.91406 2.20605C9.90527 2.15332 9.8877 2.13574 9.86133 2.13574V13.3506Z" fill="#FEFEFE"/>
</svg>
