<svg width="13" height="12" viewBox="0 0 13 12" fill="none" xmlns="http://www.w3.org/2000/svg">
<path d="M4.62109 11.8604C4.2793 11.8604 4.02637 11.7168 3.78711 11.4229L0.246094 6.99316C0.0751953 6.78125 0 6.58301 0 6.37793C0 5.90625 0.348633 5.56445 0.827148 5.56445C1.12793 5.56445 1.33301 5.67383 1.53125 5.94043L4.59375 9.87109L10.5342 0.4375C10.7393 0.116211 10.9375 0 11.2725 0C11.751 0 12.0791 0.328125 12.0791 0.799805C12.0791 0.984375 12.0244 1.17578 11.8809 1.39453L5.45508 11.416C5.25684 11.71 4.9834 11.8604 4.62109 11.8604Z" fill="#006FFF"/>
</svg>
