<svg width="16" height="16" viewBox="0 0 16 16" fill="none" xmlns="http://www.w3.org/2000/svg">
<path d="M7.7959 15.2666C7.56738 15.2666 7.37402 15.1787 7.22461 15.0293L0.254883 8.22656C0.0878906 8.05957 0 7.85742 0 7.6377C0 7.40918 0.0966797 7.18945 0.263672 7.04883L7.22461 0.237305C7.37402 0.0878906 7.56738 0 7.7959 0C8.25293 0 8.5957 0.351562 8.5957 0.808594C8.5957 1.01953 8.50781 1.23047 8.36719 1.37988L1.96875 7.6377L8.36719 13.8955C8.50781 14.0449 8.5957 14.2471 8.5957 14.4668C8.5957 14.9238 8.25293 15.2666 7.7959 15.2666ZM15.0293 2.07422C14.5811 2.07422 14.2207 1.71387 14.2207 1.26562C14.2207 0.817383 14.5811 0.457031 15.0293 0.457031C15.4775 0.457031 15.8379 0.817383 15.8379 1.26562C15.8379 1.71387 15.4775 2.07422 15.0293 2.07422ZM13.4385 3.68262C12.9902 3.68262 12.6299 3.32227 12.6299 2.87402C12.6299 2.42578 12.9902 2.06543 13.4385 2.06543C13.8867 2.06543 14.2471 2.42578 14.2471 2.87402C14.2471 3.32227 13.8867 3.68262 13.4385 3.68262ZM11.8477 5.28223C11.3906 5.28223 11.0391 4.93066 11.0391 4.47363C11.0391 4.02539 11.3906 3.66504 11.8477 3.66504C12.2959 3.66504 12.6562 4.02539 12.6562 4.47363C12.6562 4.93066 12.2959 5.28223 11.8477 5.28223ZM10.248 6.89062C9.7998 6.89062 9.43945 6.53027 9.43945 6.08203C9.43945 5.63379 9.7998 5.27344 10.248 5.27344C10.6963 5.27344 11.0566 5.63379 11.0566 6.08203C11.0566 6.53027 10.6963 6.89062 10.248 6.89062ZM8.65723 8.49902C8.20898 8.49902 7.84863 8.13867 7.84863 7.69043C7.84863 7.24219 8.20898 6.88184 8.65723 6.88184C9.10547 6.88184 9.46582 7.24219 9.46582 7.69043C9.46582 8.13867 9.10547 8.49902 8.65723 8.49902ZM10.248 10.1074C9.7998 10.1074 9.43945 9.74707 9.43945 9.29883C9.43945 8.8418 9.7998 8.49023 10.248 8.49023C10.6963 8.49023 11.0566 8.8418 11.0566 9.29883C11.0566 9.74707 10.6963 10.1074 10.248 10.1074ZM11.8477 11.707C11.3906 11.707 11.0391 11.3467 11.0391 10.8984C11.0391 10.4502 11.3906 10.0898 11.8477 10.0898C12.2959 10.0898 12.6562 10.4502 12.6562 10.8984C12.6562 11.3467 12.2959 11.707 11.8477 11.707ZM13.4385 13.3154C12.9902 13.3154 12.6299 12.9551 12.6299 12.5068C12.6299 12.0586 12.9902 11.6982 13.4385 11.6982C13.8867 11.6982 14.2471 12.0586 14.2471 12.5068C14.2471 12.9551 13.8867 13.3154 13.4385 13.3154ZM15.0293 14.9238C14.5811 14.9238 14.2207 14.5635 14.2207 14.1152C14.2207 13.667 14.5811 13.3066 15.0293 13.3066C15.4775 13.3066 15.8379 13.667 15.8379 14.1152C15.8379 14.5635 15.4775 14.9238 15.0293 14.9238Z" fill="#60BC3F"/>
</svg>
