<svg width="17" height="14" viewBox="0 0 17 14" fill="none" xmlns="http://www.w3.org/2000/svg">
<path d="M4.42969 7.44434L2.31152 7.3125L5.26465 10.0107L7.2334 12.0146C7.37402 12.1465 7.45312 12.3574 7.45312 12.5684C7.45312 13.0078 7.11035 13.3242 6.67969 13.3242C6.46875 13.3242 6.28418 13.2451 6.1084 13.0781L0.272461 7.25098C0.0966797 7.08398 0 6.88184 0 6.66211C0 6.44238 0.0966797 6.24023 0.272461 6.07324L6.09082 0.263672C6.28418 0.0703125 6.46875 0 6.67969 0C7.11035 0 7.45312 0.316406 7.45312 0.755859C7.45312 0.966797 7.37402 1.16895 7.2334 1.30957L5.26465 3.31348L2.31152 6.01172L4.42969 5.87988H15.5479C16.0049 5.87988 16.3213 6.20508 16.3213 6.66211C16.3213 7.11914 16.0049 7.44434 15.5479 7.44434H4.42969Z" fill="#FEFEFE"/>
</svg>
