<svg width="18" height="20" viewBox="0 0 18 20" fill="none" xmlns="http://www.w3.org/2000/svg">
<path d="M4.48242 19.5732C3.20801 19.5732 2.38184 18.7646 2.32031 17.5078L1.70508 4.71973H0.65918C0.307617 4.71973 0 4.4209 0 4.05176C0 3.69141 0.307617 3.39258 0.65918 3.39258H4.64941V2.04785C4.64941 0.773438 5.47559 0 6.8291 0H10.1689C11.5225 0 12.3486 0.773438 12.3486 2.04785V3.39258H16.3652C16.7256 3.39258 17.0156 3.69141 17.0156 4.05176C17.0156 4.41211 16.7256 4.71973 16.3652 4.71973H15.3105L14.7041 17.499C14.6426 18.7559 13.7988 19.5732 12.542 19.5732H4.48242ZM6.04688 2.13574V3.39258H10.9512V2.13574C10.9512 1.63477 10.5996 1.30957 10.0723 1.30957H6.92578C6.39844 1.30957 6.04688 1.63477 6.04688 2.13574ZM4.60547 18.2461H12.4014C12.9199 18.2461 13.2979 17.877 13.3154 17.3496L13.8955 4.71973H3.08496L3.7002 17.3496C3.72656 17.8682 4.10449 18.2461 4.60547 18.2461ZM5.90625 16.7432C5.58105 16.7432 5.36133 16.541 5.35254 16.2246L5.08887 6.8291C5.08008 6.52148 5.2998 6.31055 5.63379 6.31055C5.9502 6.31055 6.16992 6.5127 6.17871 6.82031L6.45117 16.2246C6.45996 16.5322 6.24023 16.7432 5.90625 16.7432ZM8.50781 16.7432C8.17383 16.7432 7.94531 16.5322 7.94531 16.2246V6.8291C7.94531 6.52148 8.17383 6.31055 8.50781 6.31055C8.8418 6.31055 9.0791 6.52148 9.0791 6.8291V16.2246C9.0791 16.5322 8.8418 16.7432 8.50781 16.7432ZM11.1182 16.7432C10.7842 16.7432 10.5645 16.5322 10.5732 16.2246L10.8369 6.8291C10.8457 6.5127 11.0654 6.31055 11.3818 6.31055C11.7158 6.31055 11.9355 6.52148 11.9268 6.8291L11.6631 16.2246C11.6543 16.541 11.4346 16.7432 11.1182 16.7432Z" fill="#FEFEFE"/>
</svg>
