<svg width="21" height="21" viewBox="0 0 21 21" fill="none" xmlns="http://www.w3.org/2000/svg">
<path d="M7.38281 7.6377C7.5498 7.6377 7.74316 7.70801 7.86621 7.84863L9.21973 9.29883L9.72949 9.82617L9.66797 8.49902V0.685547C9.66797 0.316406 9.98438 0 10.3623 0C10.7402 0 11.0654 0.316406 11.0654 0.685547V8.49902L11.0039 9.82617L11.5049 9.29883L12.8584 7.84863C12.9814 7.70801 13.166 7.6377 13.333 7.6377C13.7021 7.6377 13.9746 7.90137 13.9746 8.25293C13.9746 8.44629 13.9043 8.58691 13.7725 8.71875L10.8721 11.5137C10.6963 11.6895 10.5469 11.7422 10.3623 11.7422C10.1865 11.7422 10.0283 11.6895 9.85254 11.5137L6.95215 8.71875C6.82031 8.58691 6.75 8.44629 6.75 8.25293C6.75 7.90137 7.01367 7.6377 7.38281 7.6377ZM12.709 5.21191H14.1416C15.7061 5.21191 16.1631 5.59863 17.1914 6.86426L20.2236 10.626C20.6191 11.1006 20.7246 11.4961 20.7246 12.2959V17.499C20.7246 19.3096 19.8105 20.2236 17.9648 20.2236H2.75977C0.922852 20.2236 0 19.3096 0 17.499V12.2959C0 11.4961 0.114258 11.1006 0.500977 10.626L3.54199 6.86426C4.57031 5.59863 5.01855 5.21191 6.58301 5.21191H8.01562V6.45117H6.47754C5.83594 6.45117 5.34375 6.66211 4.91309 7.20703L1.65234 11.3291C1.50293 11.5137 1.56445 11.7598 1.85449 11.7598H7.64648C8.10352 11.7598 8.32324 12.1113 8.32324 12.4717V12.5068C8.32324 13.5264 9.12305 14.5986 10.3623 14.5986C11.6104 14.5986 12.4102 13.5264 12.4102 12.5068V12.4717C12.4102 12.1113 12.6211 11.7598 13.0781 11.7598H18.8789C19.1689 11.7598 19.2217 11.5137 19.0811 11.3291L15.8115 7.20703C15.3809 6.66211 14.8887 6.45117 14.2471 6.45117H12.709V5.21191ZM2.77734 18.8086H17.9473C18.8174 18.8086 19.3096 18.334 19.3096 17.4199V13.0518H13.7373C13.5264 14.6865 12.1465 15.9082 10.3623 15.9082C8.57812 15.9082 7.19824 14.6953 6.9873 13.0518H1.41504V17.4199C1.41504 18.334 1.89844 18.8086 2.77734 18.8086Z" fill="#FEFEFE"/>
</svg>
