<svg width="17" height="14" viewBox="0 0 17 14" fill="none" xmlns="http://www.w3.org/2000/svg">
<path d="M16.4268 13.1738C16.3477 13.5342 16.1367 13.833 15.6709 13.833C15.2139 13.833 14.8887 13.5166 14.8887 13.0508C14.8975 12.7695 14.8975 12.4268 14.9062 12.04C14.9062 8.7793 13.7725 7.45215 10.5469 7.45215H4.44727L2.34668 7.34668L5.29102 10.0273L7.24219 12.0137C7.38281 12.1543 7.45312 12.3652 7.45312 12.5762C7.45312 13.0156 7.11914 13.332 6.68848 13.332C6.47754 13.332 6.29297 13.2529 6.1084 13.0859L0.272461 7.25879C0.0966797 7.08301 0 6.88086 0 6.66113C0 6.4502 0.0966797 6.23926 0.272461 6.07227L6.09082 0.262695C6.28418 0.0693359 6.47754 -0.000976562 6.68848 -0.000976562C7.11914 -0.000976562 7.45312 0.31543 7.45312 0.754883C7.45312 0.96582 7.38281 1.16797 7.24219 1.30859L5.29102 3.29492L2.35547 5.97559L4.44727 5.87891H10.626C14.8008 5.87891 16.4971 7.70703 16.4971 11.9609C16.4971 12.4707 16.4795 12.9102 16.4268 13.1738Z" fill="#006FFF"/>
</svg>
