<svg width="22" height="22" viewBox="0 0 22 22" fill="none" xmlns="http://www.w3.org/2000/svg">
<rect x="0.75" y="0.75" width="20" height="20" rx="8" stroke="#D32323" stroke-width="1.5"/>
<path d="M16.0342 15.0322C16.3213 15.3193 16.3213 15.8115 16.0273 16.1055C15.7334 16.4062 15.2412 16.3994 14.9473 16.1123L10.7432 11.9082L6.53906 16.1123C6.25879 16.3926 5.75977 16.3994 5.45898 16.1055C5.16504 15.8184 5.17188 15.3125 5.45898 15.0322L9.66309 10.8213L5.45898 6.61719C5.17188 6.33691 5.17188 5.83789 5.45898 5.53711C5.75293 5.24316 6.25879 5.25 6.53906 5.53711L10.7432 9.74121L14.9473 5.53711C15.248 5.24316 15.7334 5.25 16.0273 5.54395C16.3281 5.83105 16.3213 6.33008 16.0342 6.61719L11.8301 10.8213L16.0342 15.0322Z" fill="#D32323"/>
</svg>
