<svg width="24" height="24" viewBox="0 0 24 24" fill="none" xmlns="http://www.w3.org/2000/svg">
<path d="M12 20.7686C11.8594 20.7686 11.6396 20.7158 11.4111 20.5928C6.41895 17.7803 4.69629 16.6025 4.69629 13.3945V6.6709C4.69629 5.74805 5.10059 5.44922 5.83887 5.1416C6.87598 4.71973 10.2334 3.44531 11.2705 3.14648C11.499 3.08496 11.7539 3.01465 12 3.01465C12.2461 3.01465 12.501 3.06738 12.7383 3.14648C13.7754 3.50684 17.124 4.71094 18.1611 5.1416C18.9082 5.45801 19.3037 5.74805 19.3037 6.6709V13.3945C19.3037 16.6025 17.5898 17.7891 12.5889 20.5928C12.3691 20.7158 12.1406 20.7686 12 20.7686ZM12 19.1777C12.1406 19.1777 12.29 19.125 12.5449 18.9668C16.6055 16.4971 17.9062 15.7852 17.9062 13.0693V6.94336C17.9062 6.64453 17.8535 6.52148 17.6162 6.43359C16.2539 5.96777 13.6787 5.03613 12.3516 4.50879C12.2109 4.45605 12.0967 4.42969 12 4.42969C11.9033 4.42969 11.7891 4.44727 11.6484 4.50879C10.3213 5.03613 7.72852 5.90625 6.39258 6.43359C6.14648 6.53027 6.09375 6.64453 6.09375 6.94336V13.0693C6.09375 15.7852 7.39453 16.5059 11.4551 18.9668C11.7188 19.125 11.8594 19.1777 12 19.1777ZM11.0508 15.6357C10.752 15.6357 10.5234 15.5215 10.2949 15.2314L8.15918 12.5947C8.03613 12.4277 7.95703 12.2344 7.95703 12.0498C7.95703 11.6543 8.24707 11.3467 8.63379 11.3467C8.87109 11.3467 9.07324 11.4258 9.27539 11.707L11.0156 13.9482L14.6631 8.09473C14.8213 7.83105 15.041 7.69922 15.2695 7.69922C15.6387 7.69922 15.9902 7.9541 15.9902 8.34082C15.9902 8.54297 15.876 8.73633 15.7793 8.90332L11.7539 15.2314C11.5869 15.4951 11.3408 15.6357 11.0508 15.6357Z" fill="#1C1C25"/>
</svg>
