<svg width="42" height="42" viewBox="0 0 42 42" fill="none" xmlns="http://www.w3.org/2000/svg">
<rect x="0.5" y="0.5" width="41" height="41" rx="20.5" stroke="#D1D1D3"/>
<path d="M14.4609 25.8047C12.6152 25.8047 11.7012 24.8906 11.7012 23.0801V14.1855C11.7012 12.375 12.6152 11.4609 14.4609 11.4609H23.2852C25.1133 11.4609 26.0361 12.375 26.0361 14.1855V15.5303H27.5479C29.376 15.5303 30.2988 16.4443 30.2988 18.2549V27.1494C30.2988 28.96 29.376 29.874 27.5479 29.874H18.7236C16.8779 29.874 15.9639 28.96 15.9639 27.1494V25.8047H14.4609ZM14.4785 24.3896H15.9639V18.2549C15.9639 16.4355 16.8779 15.5303 18.7236 15.5303H24.6211V14.2646C24.6211 13.3506 24.1289 12.876 23.2588 12.876H14.4785C13.5996 12.876 13.1162 13.3506 13.1162 14.2646V23.001C13.1162 23.915 13.5996 24.3896 14.4785 24.3896ZM18.7412 28.459H27.5215C28.3916 28.459 28.8838 27.9844 28.8838 27.0703V18.334C28.8838 17.4199 28.3916 16.9453 27.5215 16.9453H18.7412C17.8711 16.9453 17.3789 17.4199 17.3789 18.334V27.0703C17.3789 27.9844 17.8711 28.459 18.7412 28.459ZM21.0264 26.5166C20.5957 26.833 20.1387 26.499 20.3057 25.998L21.1406 23.4932L19.0049 21.9639C18.6006 21.6738 18.7324 21.1025 19.2773 21.1113L21.9053 21.1289L22.7051 18.6152C22.8633 18.123 23.4258 18.123 23.5752 18.6152L24.3838 21.1289L27.0117 21.1113C27.5566 21.1025 27.6797 21.6738 27.2842 21.9639L25.1396 23.4932L25.9834 25.998C26.1504 26.499 25.6934 26.833 25.2627 26.5166L23.1445 24.9609L21.0264 26.5166Z" fill="#1C1C25"/>
</svg>
