<svg width="28" height="28" viewBox="0 0 28 28" fill="none" xmlns="http://www.w3.org/2000/svg">
<path d="M21.6025 21.749C23.4395 21.749 24.3623 20.8438 24.3623 19.0332V8.29297C24.3623 6.48242 23.4395 5.56836 21.6025 5.56836H6.39746C4.55176 5.56836 3.6377 6.48242 3.6377 8.29297V19.0332C3.6377 20.8438 4.55176 21.749 6.39746 21.749H21.6025ZM9.76367 13.6543L5.05273 18.0752V8.37207C5.05273 7.45801 5.54492 6.9834 6.41504 6.9834H21.585C22.4639 6.9834 22.9473 7.45801 22.9473 8.37207V18.0752L20.3281 15.7109C19.9678 15.377 19.5898 15.2188 19.1943 15.2188C18.7812 15.2188 18.377 15.3857 18.0078 15.7197L16.3818 17.1875L12.4092 13.6367C12.0049 13.2764 11.5742 13.1094 11.0908 13.1094C10.6162 13.1094 10.1504 13.2939 9.76367 13.6543ZM17.8145 13.7422C18.957 13.7422 19.8887 12.8105 19.8887 11.668C19.8887 10.5342 18.957 9.59375 17.8145 9.59375C16.6807 9.59375 15.749 10.5342 15.749 11.668C15.749 12.8105 16.6807 13.7422 17.8145 13.7422Z" fill="#242A31"/>
</svg>
