<svg width="9" height="16" viewBox="0 0 9 16" fill="none" xmlns="http://www.w3.org/2000/svg">
<path d="M8.5957 7.62891C8.5957 7.84863 8.50781 8.04199 8.34082 8.20898L1.37988 15.0205C1.22168 15.1787 1.02832 15.2578 0.799805 15.2578C0.351562 15.2578 0 14.915 0 14.458C0 14.2295 0.0878906 14.0361 0.228516 13.8867L6.62695 7.62891L0.228516 1.37109C0.0878906 1.22168 0 1.01953 0 0.799805C0 0.342773 0.351562 0 0.799805 0C1.02832 0 1.22168 0.0791016 1.37988 0.228516L8.34082 7.04883C8.50781 7.20703 8.5957 7.40918 8.5957 7.62891Z" fill="#1C1C25"/>
</svg>
