<svg width="23" height="19" viewBox="0 0 23 19" fill="none" xmlns="http://www.w3.org/2000/svg">
<path d="M1.75781 13.7285L0.316406 5.56348C0 3.7793 0.755859 2.72461 2.55762 2.39941L14.3877 0.316406C16.1982 0 17.2529 0.738281 17.5781 2.52246L18.0088 4.96582H19.8984C21.7266 4.96582 22.6582 5.87988 22.6582 7.69043V15.9785C22.6582 17.7891 21.7266 18.7031 19.8984 18.7031H7.89258C6.04688 18.7031 5.13281 17.7979 5.13281 15.9785V15.8994L4.94824 15.9346C3.12891 16.2422 2.08301 15.5127 1.75781 13.7285ZM3.1377 13.4121C3.2959 14.3086 3.8584 14.6865 4.72852 14.5371L5.13281 14.4668V7.69043C5.13281 5.87988 6.04688 4.96582 7.89258 4.96582H16.5762L16.1982 2.83887C16.04 1.94238 15.46 1.57324 14.6074 1.71387L2.83008 3.78809C1.95996 3.9375 1.56445 4.49121 1.72266 5.39648L3.1377 13.4121ZM6.54785 7.76953V15.0908L8.53418 13.3594C8.87695 13.0693 9.20215 12.9287 9.54492 12.9287C9.92285 12.9287 10.2832 13.0693 10.626 13.377L12.0322 14.6514L15.583 11.5049C15.9521 11.1797 16.3301 11.0391 16.7695 11.0391C17.2002 11.0391 17.6133 11.1973 17.9561 11.5137L21.2432 14.6162V7.76953C21.2432 6.85547 20.7422 6.38086 19.8721 6.38086H7.91016C7.03125 6.38086 6.54785 6.85547 6.54785 7.76953ZM11.3994 11.707C10.3711 11.707 9.53613 10.8545 9.53613 9.82617C9.53613 8.81543 10.3711 7.96289 11.3994 7.96289C12.4277 7.96289 13.2627 8.81543 13.2627 9.82617C13.2627 10.8545 12.4277 11.707 11.3994 11.707Z" fill="#FEFEFE"/>
</svg>
