<svg width="24" height="24" viewBox="0 0 24 24" fill="none" xmlns="http://www.w3.org/2000/svg">
<path d="M22.0781 20.3255C19.9631 19.2942 18.75 17.0836 18.75 14.2505V12.6305C18.7508 12.33 18.661 12.0362 18.4922 11.7875C18.3235 11.5388 18.0837 11.3467 17.8041 11.2364L15.4688 10.3121C15.285 10.2386 15.1378 10.0954 15.0591 9.91387C14.9805 9.7323 14.9767 9.52699 15.0488 9.34268L17.0475 4.37393C17.1832 4.04781 17.2516 3.69767 17.2487 3.34448C17.2459 2.99129 17.1718 2.6423 17.0308 2.31843C16.8899 1.99456 16.6851 1.70246 16.4286 1.45962C16.1721 1.21679 15.8692 1.02821 15.5381 0.905183C14.8933 0.668899 14.1817 0.693415 13.5546 0.973518C12.9275 1.25362 12.4344 1.76723 12.18 2.40518C12.1796 2.40892 12.1796 2.41269 12.18 2.41643L10.2094 7.40581C10.1361 7.59039 9.99259 7.73837 9.81033 7.81729C9.62808 7.8962 9.42197 7.8996 9.23721 7.82674L6.85408 6.85643C6.57932 6.74509 6.27758 6.71827 5.98748 6.7794C5.69738 6.84052 5.43212 6.98682 5.22564 7.19956C3.25127 9.22925 2.25002 11.6011 2.25002 14.2496C2.24483 16.9598 3.29296 19.566 5.17314 21.518C5.24359 21.5916 5.3283 21.6502 5.42211 21.69C5.51592 21.7298 5.61686 21.7501 5.71877 21.7496H21.75C21.9195 21.7494 22.084 21.6918 22.2166 21.5862C22.3492 21.4806 22.4421 21.3331 22.4801 21.168C22.5182 21.0028 22.4992 20.8296 22.4262 20.6766C22.3532 20.5236 22.2305 20.3998 22.0781 20.3255ZM6.29439 8.24956L8.67658 9.21518C8.95156 9.32519 9.24555 9.37983 9.54169 9.37596C9.83783 9.3721 10.1303 9.3098 10.4023 9.19265C10.6743 9.0755 10.9205 8.9058 11.1268 8.69329C11.3331 8.48077 11.4954 8.22962 11.6044 7.95424L13.5731 2.9855C13.8131 2.41268 14.461 2.11643 15.0197 2.32925C15.1622 2.3821 15.2924 2.46326 15.4027 2.56783C15.5129 2.67241 15.6008 2.79823 15.6611 2.9377C15.7213 3.07717 15.7527 3.22741 15.7534 3.37935C15.754 3.53129 15.7238 3.68178 15.6647 3.82175L13.6585 8.78956C13.4388 9.34369 13.448 9.96235 13.6841 10.5097C13.9201 11.057 14.3638 11.4884 14.9175 11.7089L17.25 12.6305V14.3433L5.22846 9.53487C5.54811 9.07807 5.90461 8.6482 6.29439 8.24956ZM10.7944 20.2496C9.67775 19.1784 8.8867 17.8134 8.51252 16.3121C8.46037 16.1222 8.33563 15.9604 8.16523 15.8617C7.99483 15.763 7.79244 15.7352 7.60177 15.7845C7.4111 15.8337 7.24745 15.956 7.14614 16.1248C7.04484 16.2937 7.01402 16.4957 7.06033 16.6871C7.38755 17.9786 7.97308 19.1905 8.78158 20.2496H6.04127C4.56207 18.6016 3.7458 16.464 3.75002 14.2496C3.74085 13.0762 3.98818 11.9151 4.47471 10.8474L17.3935 16.0149C17.6747 17.7024 18.3835 19.1536 19.4456 20.2486L10.7944 20.2496Z" fill="#FEFEFE"/>
</svg>
