<svg width="42" height="42" viewBox="0 0 42 42" fill="none" xmlns="http://www.w3.org/2000/svg">
<rect x="0.5" y="0.5" width="41" height="41" rx="20.5" stroke="#D1D1D3"/>
<path d="M18.9697 30.041C18.3984 30.7881 17.4316 30.2959 17.7832 29.3906L20.4023 22.5615H15.4365C15.0674 22.5615 14.8037 22.3066 14.8037 21.9639C14.8037 21.7705 14.8828 21.5947 15.0322 21.4014L23.0215 11.1357C23.5928 10.3799 24.5596 10.8721 24.208 11.7773L21.5889 18.6152H26.5547C26.9238 18.6152 27.1875 18.8701 27.1875 19.2041C27.1875 19.4062 27.1084 19.582 26.959 19.7666L18.9697 30.041ZM22.4326 21.252L20.0244 26.5078L24.9814 19.9248H19.5586L21.958 14.6689L17.001 21.252H22.4326Z" fill="#1C1C25"/>
</svg>
