<svg width="21" height="18" viewBox="0 0 21 18" fill="none" xmlns="http://www.w3.org/2000/svg">
<path d="M15.5215 16.8398C12.6035 17.9033 10.002 17.0684 7.76953 14.3701L4.8252 10.8193C4.63184 10.5645 4.45605 10.2568 4.36816 10.002C4.03418 9.09668 4.55273 8.33203 5.36133 8.0332C5.9502 7.82227 6.55664 7.98926 7.06641 8.53418L8.09473 9.65039C8.12109 9.68555 8.15625 9.69434 8.18262 9.68555C8.22656 9.66797 8.23535 9.63281 8.21777 9.58887L5.71289 2.69824C5.33496 1.65234 5.7832 0.711914 6.76758 0.351562C7.74316 0 8.68359 0.439453 9.06152 1.48535L10.0635 4.22754C10.2393 4.10449 10.4238 3.99902 10.6172 3.92871C11.3379 3.66504 12.0322 3.88477 12.4893 4.46484C12.6914 4.30664 12.9111 4.1748 13.166 4.07812C13.8516 3.83203 14.4844 4.0166 14.8975 4.55273C16.4443 4.0166 17.7451 4.79883 18.4395 6.70605L19.0898 8.50781C20.4961 12.375 19.0107 15.5742 15.5215 16.8398ZM15.1436 15.6885C18.0703 14.625 19.1602 12.0938 17.9561 8.77148L17.4111 7.26855C16.9277 5.9502 16.2334 5.35254 15.5039 5.61621L15.8467 6.56543C15.9521 6.86426 15.7852 7.16309 15.5127 7.25977C15.2314 7.36523 14.9062 7.25098 14.8008 6.94336L14.3262 5.66016C14.168 5.22949 13.8252 5.04492 13.4121 5.19434C13.2539 5.25586 13.0781 5.37012 12.9639 5.48438L13.5264 7.04883C13.6406 7.35645 13.4648 7.64648 13.2012 7.74316C12.9199 7.84863 12.5859 7.73438 12.4805 7.42676L11.7773 5.51074C11.6191 5.08008 11.2764 4.89551 10.8633 5.04492C10.7051 5.10645 10.5293 5.2207 10.415 5.33496L11.2148 7.54102C11.3203 7.82227 11.1621 8.12988 10.8809 8.23535C10.5908 8.34082 10.2656 8.20898 10.1602 7.91895L7.93652 1.81055C7.81348 1.45898 7.48828 1.29199 7.1543 1.41504C6.81152 1.53809 6.66211 1.87207 6.78516 2.22363L9.90527 10.7842C10.0371 11.1621 9.89648 11.5312 9.55371 11.6543C9.25488 11.7598 8.95605 11.7246 8.62207 11.373L6.58301 9.27246C6.36328 9.03516 6.13477 8.92969 5.85352 9.02637C5.51953 9.14941 5.39648 9.47461 5.50195 9.75586C5.55469 9.90527 5.61621 10.002 5.7041 10.1074L8.64844 13.6494C10.6875 16.1016 12.8408 16.5322 15.1436 15.6885ZM4.29785 2.3291L4.69336 3.41016C2.54004 4.80762 1.18652 7.28613 1.10742 10.4414C1.09863 10.7578 0.878906 10.9951 0.571289 11.0039C0.272461 11.0127 0 10.7402 0 10.4238C0 6.82031 1.71387 3.89355 4.29785 2.3291Z" fill="#FEFEFE"/>
</svg>
