<svg width="24" height="24" viewBox="0 0 24 24" fill="none" xmlns="http://www.w3.org/2000/svg">
<path d="M2.93848 9.10547C2.78906 9.25488 2.61328 9.3252 2.38477 9.3252C1.92773 9.3252 1.61133 9.01758 1.61133 8.55176C1.61133 8.34961 1.70801 8.12109 1.85742 7.97168L6.2959 3.43652C6.62109 3.09375 7.13086 3.08496 7.47363 3.43652L11.9033 7.97168C12.0615 8.12109 12.1494 8.34961 12.1494 8.55176C12.1494 9.01758 11.833 9.3252 11.376 9.3252C11.1475 9.3252 10.9805 9.25488 10.8311 9.10547L8.99414 7.21582L7.54395 5.50195L7.66699 7.60254V19.3447C7.66699 19.8018 7.3418 20.1357 6.88477 20.1357C6.41895 20.1357 6.09375 19.8018 6.09375 19.3447V7.60254L6.23438 5.48438L4.7666 7.21582L2.93848 9.10547ZM13.1602 14.2119L14.9883 16.1016L16.4648 17.8242L16.3154 15.7061V3.96387C16.3154 3.50684 16.6494 3.18164 17.1064 3.18164C17.5635 3.18164 17.8887 3.50684 17.8887 3.96387V15.7061L17.7656 17.8066L19.2246 16.1016L21.0527 14.2119C21.2021 14.0625 21.3691 13.9834 21.5977 13.9834C22.0547 13.9834 22.3799 14.2998 22.3799 14.7656C22.3799 14.959 22.2832 15.1875 22.125 15.3457L17.6953 19.8721C17.3613 20.2324 16.8428 20.2148 16.5176 19.8721L12.0879 15.3457C11.9297 15.1875 11.833 14.959 11.833 14.7656C11.833 14.2998 12.1582 13.9834 12.6152 13.9834C12.835 13.9834 13.0107 14.0625 13.1602 14.2119Z" fill="#006FFF"/>
</svg>
