<svg width="16" height="16" viewBox="0 0 16 16" fill="none" xmlns="http://www.w3.org/2000/svg">
<path d="M8.05078 15.2666C7.59375 15.2666 7.24219 14.9238 7.24219 14.4668C7.24219 14.2471 7.33887 14.0449 7.47949 13.8955L13.8691 7.6377L7.47949 1.37988C7.33887 1.23047 7.24219 1.01953 7.24219 0.808594C7.24219 0.351562 7.59375 0 8.05078 0C8.27051 0 8.46387 0.0878906 8.62207 0.237305L15.583 7.04883C15.75 7.18945 15.8379 7.40918 15.8379 7.6377C15.8379 7.85742 15.75 8.05957 15.583 8.22656L8.62207 15.0293C8.46387 15.1787 8.27051 15.2666 8.05078 15.2666ZM0.808594 2.07422C0.360352 2.07422 0 1.71387 0 1.26562C0 0.817383 0.360352 0.457031 0.808594 0.457031C1.25684 0.457031 1.61719 0.817383 1.61719 1.26562C1.61719 1.71387 1.25684 2.07422 0.808594 2.07422ZM2.39941 3.68262C1.95117 3.68262 1.59082 3.32227 1.59082 2.87402C1.59082 2.42578 1.95117 2.06543 2.39941 2.06543C2.85645 2.06543 3.20801 2.42578 3.20801 2.87402C3.20801 3.32227 2.85645 3.68262 2.39941 3.68262ZM3.99902 5.28223C3.55078 5.28223 3.19043 4.93066 3.19043 4.47363C3.19043 4.02539 3.55078 3.66504 3.99902 3.66504C4.44727 3.66504 4.80762 4.02539 4.80762 4.47363C4.80762 4.93066 4.44727 5.28223 3.99902 5.28223ZM5.58984 6.89062C5.1416 6.89062 4.78125 6.53027 4.78125 6.08203C4.78125 5.63379 5.1416 5.27344 5.58984 5.27344C6.03809 5.27344 6.39844 5.63379 6.39844 6.08203C6.39844 6.53027 6.03809 6.89062 5.58984 6.89062ZM7.18945 8.49902C6.74121 8.49902 6.38086 8.13867 6.38086 7.69043C6.38086 7.24219 6.74121 6.88184 7.18945 6.88184C7.6377 6.88184 7.99805 7.24219 7.99805 7.69043C7.99805 8.13867 7.6377 8.49902 7.18945 8.49902ZM5.58984 10.1074C5.1416 10.1074 4.78125 9.74707 4.78125 9.29883C4.78125 8.8418 5.1416 8.49023 5.58984 8.49023C6.03809 8.49023 6.39844 8.8418 6.39844 9.29883C6.39844 9.74707 6.03809 10.1074 5.58984 10.1074ZM3.99902 11.707C3.55078 11.707 3.19043 11.3467 3.19043 10.8984C3.19043 10.4502 3.55078 10.0898 3.99902 10.0898C4.44727 10.0898 4.80762 10.4502 4.80762 10.8984C4.80762 11.3467 4.44727 11.707 3.99902 11.707ZM2.39941 13.3154C1.95117 13.3154 1.59082 12.9551 1.59082 12.5068C1.59082 12.0586 1.95117 11.6982 2.39941 11.6982C2.85645 11.6982 3.20801 12.0586 3.20801 12.5068C3.20801 12.9551 2.85645 13.3154 2.39941 13.3154ZM0.808594 14.9238C0.360352 14.9238 0 14.5635 0 14.1152C0 13.667 0.360352 13.3066 0.808594 13.3066C1.25684 13.3066 1.61719 13.667 1.61719 14.1152C1.61719 14.5635 1.25684 14.9238 0.808594 14.9238Z" fill="#D32323"/>
</svg>
