<svg width="16" height="16" viewBox="0 0 16 16" fill="none" xmlns="http://www.w3.org/2000/svg">
<path d="M5.73047 15.0205C5.35254 15.0205 5.08008 14.8535 4.81641 14.5107L0.254883 8.70117C0.0878906 8.49023 0 8.26172 0 8.05957C0 7.57617 0.342773 7.2334 0.84375 7.2334C1.16016 7.2334 1.37988 7.35645 1.59961 7.66406L5.69531 13.0254L13.5879 0.448242C13.7988 0.114258 13.9922 0 14.3438 0C14.8271 0 15.1436 0.316406 15.1436 0.799805C15.1436 1.00195 15.082 1.19531 14.9238 1.4502L6.61816 14.5283C6.40723 14.8535 6.1084 15.0205 5.73047 15.0205Z" fill="#1C1C25"/>
</svg>
