<svg width="25" height="17" viewBox="0 0 25 17" fill="none" xmlns="http://www.w3.org/2000/svg">
<path d="M7.68164 8.13867C5.58984 8.13867 3.88477 6.29297 3.88477 4.03418C3.88477 1.80176 5.59863 0 7.68164 0C9.78223 0 11.4785 1.7666 11.4785 4.0166C11.4785 6.28418 9.77344 8.13867 7.68164 8.13867ZM19.793 7.33887C19.4854 7.33887 19.2393 7.20703 19.0195 6.92578L17.1035 4.5791C16.9805 4.4209 16.9014 4.20117 16.9014 4.0166C16.9014 3.60352 17.2266 3.25195 17.6396 3.25195C17.8857 3.25195 18.1143 3.34863 18.3252 3.62988L19.7578 5.44922L22.8867 0.430664C23.0537 0.149414 23.291 0.00878906 23.5459 0.00878906C23.9326 0.00878906 24.3193 0.28125 24.3193 0.720703C24.3193 0.922852 24.2051 1.14258 24.0996 1.29199L20.54 6.91699C20.3643 7.18945 20.0918 7.33887 19.793 7.33887ZM7.68164 6.81152C8.97363 6.81152 10.0635 5.57227 10.0635 4.0166C10.0635 2.47852 8.99121 1.32715 7.68164 1.32715C6.38086 1.32715 5.2998 2.50488 5.2998 4.03418C5.2998 5.58984 6.39844 6.81152 7.68164 6.81152ZM2.15332 16.2773C0.694336 16.2773 0 15.8379 0 14.8711C0 12.5684 2.90918 9.2373 7.68164 9.2373C12.4453 9.2373 15.3545 12.5684 15.3545 14.8711C15.3545 15.8379 14.6602 16.2773 13.2012 16.2773H2.15332ZM18.0791 15.9961C17.6836 15.9961 17.3584 15.6621 17.3584 15.2666C17.3584 15.0732 17.4375 14.8975 17.5781 14.7656L19.6084 12.7354L17.5869 10.7139C17.4287 10.5557 17.3584 10.3975 17.3584 10.2041C17.3584 9.7998 17.6836 9.49219 18.0879 9.49219C18.2725 9.49219 18.4307 9.55371 18.5801 9.70312L20.6191 11.7334L22.6494 9.70312C22.7988 9.55371 22.957 9.49219 23.1416 9.49219C23.5459 9.49219 23.8711 9.7998 23.8711 10.2041C23.8711 10.3975 23.8008 10.5557 23.6514 10.7139L21.6299 12.7354L23.6602 14.7656C23.792 14.8975 23.8711 15.0732 23.8711 15.2666C23.8711 15.6621 23.5459 15.9961 23.1504 15.9961C22.957 15.9961 22.7725 15.917 22.6318 15.7676L20.6191 13.7461L18.5977 15.7676C18.457 15.917 18.2725 15.9961 18.0791 15.9961ZM1.74023 14.9502H13.623C13.8516 14.9502 13.9395 14.8887 13.9395 14.7041C13.9395 13.2539 11.707 10.5645 7.68164 10.5645C3.64746 10.5645 1.41504 13.2539 1.41504 14.7041C1.41504 14.8887 1.51172 14.9502 1.74023 14.9502Z" fill="#FEFEFE"/>
</svg>
