<svg width="24" height="24" viewBox="0 0 24 24" fill="none" xmlns="http://www.w3.org/2000/svg">
<path d="M7.71973 21.3135C7.10449 21.3135 6.76172 20.874 6.76172 20.1973V17.9121H6.33984C3.7207 17.9121 2.31445 16.4707 2.31445 13.8867V7.1543C2.31445 4.57031 3.7207 3.12891 6.33984 3.12891H17.6602C20.2793 3.12891 21.6855 4.5791 21.6855 7.1543V13.8867C21.6855 16.4619 20.2793 17.9121 17.6602 17.9121H12.0176L8.98535 20.6104C8.44922 21.085 8.15039 21.3135 7.71973 21.3135ZM8.08008 19.7051L10.8926 16.9102C11.2266 16.5674 11.4727 16.4971 11.9648 16.4971H17.6602C19.4268 16.4971 20.2705 15.5918 20.2705 13.8779V7.1543C20.2705 5.44043 19.4268 4.54395 17.6602 4.54395H6.33984C4.56445 4.54395 3.72949 5.44043 3.72949 7.1543V13.8779C3.72949 15.5918 4.56445 16.4971 6.33984 16.4971H7.4209C7.89551 16.4971 8.08008 16.6816 8.08008 17.1562V19.7051ZM10.1367 13.834C9.76758 14.1064 9.3457 13.8604 9.50391 13.377L10.2422 11.1797L8.31738 9.7998C7.92188 9.51855 8.09766 9.07031 8.53711 9.07031H10.9102L11.6221 6.88184C11.7539 6.45996 12.2637 6.45996 12.3955 6.88184L13.0986 9.07031H15.4717C15.9111 9.07031 16.0781 9.51855 15.6914 9.7998L13.7754 11.1797L14.5049 13.377C14.6719 13.8604 14.2412 14.1064 13.8809 13.834L12.0088 12.4629L10.1367 13.834Z" fill="#1C1C25"/>
</svg>
