<svg width="23" height="21" viewBox="0 0 23 21" fill="none" xmlns="http://www.w3.org/2000/svg">
<path d="M7.46191 1.13379C7.51465 0.386719 7.93652 0 8.74512 0H17.2705C18.0791 0 18.501 0.386719 18.5537 1.13379H7.46191ZM5.65137 3.56836C5.7832 2.76855 6.16113 2.3291 7.04004 2.3291H18.9756C19.8545 2.3291 20.2324 2.76855 20.3643 3.56836H5.65137ZM9.16699 19.459C9.46582 19.0283 9.71191 18.5537 9.87891 18.0439H19.4238C20.2939 18.0439 20.7949 17.5693 20.7949 16.6553V7.78711C20.7949 6.87305 20.2939 6.39844 19.4238 6.39844H6.58301C5.7041 6.39844 5.21191 6.87305 5.21191 7.78711V10.6348C4.97461 10.6084 4.7373 10.5908 4.5 10.5908C4.27148 10.5908 4.03418 10.6084 3.79688 10.6348V7.70801C3.79688 5.89746 4.71973 4.9834 6.55664 4.9834H19.4502C21.2783 4.9834 22.21 5.89746 22.21 7.70801V16.7344C22.21 18.5449 21.2783 19.459 19.4502 19.459H9.16699ZM4.46484 20.7334C2.0127 20.7334 0 18.7207 0 16.2686C0 13.8164 2.0127 11.8037 4.46484 11.8037C6.91699 11.8037 8.92969 13.8164 8.92969 16.2686C8.92969 18.7031 6.88184 20.7334 4.46484 20.7334ZM3.01465 18.0352C3.01465 18.4043 3.38379 18.5625 3.70898 18.3691L6.62695 16.6465C6.94336 16.4619 6.91699 16.0576 6.57422 15.8555L3.70898 14.1504C3.38379 13.9658 3.01465 14.1152 3.01465 14.4844V18.0352Z" fill="#FEFEFE"/>
</svg>
