<svg width="36" height="17" viewBox="0 0 36 17" fill="none" xmlns="http://www.w3.org/2000/svg">
<path d="M7.68164 8.13867C5.58984 8.13867 3.88477 6.29297 3.88477 4.03418C3.87598 1.80176 5.58984 0 7.68164 0C9.79102 0 11.4785 1.7666 11.4785 4.0166C11.4785 6.28418 9.76465 8.13867 7.68164 8.13867ZM17.5342 8.13867C15.4424 8.13867 13.7461 6.29297 13.7373 4.03418C13.7285 1.80176 15.4424 0 17.5342 0C19.6436 0 21.3311 1.7666 21.3311 4.0166C21.3311 6.28418 19.626 8.13867 17.5342 8.13867ZM27.3867 8.13867C25.3037 8.13867 23.5986 6.29297 23.5898 4.03418C23.5898 1.80176 25.3037 0 27.3867 0C29.4961 0 31.1836 1.7666 31.1836 4.0166C31.1836 6.28418 29.4785 8.13867 27.3867 8.13867ZM7.68164 6.81152C8.97363 6.81152 10.0635 5.57227 10.0635 4.0166C10.0635 2.47852 8.99121 1.32715 7.68164 1.32715C6.37207 1.32715 5.29102 2.50488 5.2998 4.03418C5.2998 5.58984 6.38965 6.81152 7.68164 6.81152ZM17.5342 6.81152C18.8262 6.81152 19.916 5.57227 19.916 4.0166C19.916 2.47852 18.8438 1.32715 17.5342 1.32715C16.2246 1.32715 15.1436 2.50488 15.1523 4.03418C15.1523 5.58984 16.251 6.81152 17.5342 6.81152ZM27.3867 6.81152C28.6875 6.81152 29.7686 5.57227 29.7686 4.0166C29.7686 2.47852 28.6963 1.32715 27.3867 1.32715C26.0859 1.32715 25.0049 2.50488 25.0049 4.03418C25.0049 5.58984 26.1035 6.81152 27.3867 6.81152ZM2.15332 16.2773C0.694336 16.2773 0 15.8379 0 14.8711C0 12.5684 2.90918 9.2373 7.68164 9.2373C12.4453 9.2373 15.3545 12.5684 15.3545 14.8711C15.3545 15.8379 14.6602 16.2773 13.2012 16.2773H2.15332ZM17.5254 9.2373C22.2979 9.2373 25.207 12.5684 25.207 14.8711C25.207 15.8379 24.5127 16.2773 23.0449 16.2773H16.0664C16.3477 15.873 16.4355 15.4248 16.4443 14.9502H23.4668C23.6953 14.9502 23.792 14.8887 23.792 14.7041C23.792 13.2539 21.5596 10.5645 17.5254 10.5645C16.4883 10.5645 15.5654 10.7578 14.7832 11.0566C14.458 10.7051 14.0801 10.3711 13.6758 10.0723C14.7656 9.5625 16.0576 9.2373 17.5254 9.2373ZM27.3867 9.2373C32.1592 9.2373 35.0684 12.5684 35.0684 14.8711C35.0684 15.8379 34.374 16.2773 32.9062 16.2773H25.9102C26.2002 15.873 26.2881 15.4248 26.2969 14.9502H33.3281C33.5566 14.9502 33.6533 14.8887 33.6533 14.7041C33.6533 13.2539 31.4209 10.5645 27.3867 10.5645C26.3496 10.5645 25.418 10.7578 24.6357 11.0654C24.3105 10.7051 23.9414 10.3799 23.5283 10.0811C24.6182 9.5625 25.9189 9.2373 27.3867 9.2373ZM1.74023 14.9502H13.623C13.8516 14.9502 13.9395 14.8887 13.9395 14.7041C13.9395 13.2539 11.707 10.5645 7.68164 10.5645C3.64746 10.5645 1.41504 13.2539 1.41504 14.7041C1.41504 14.8887 1.51172 14.9502 1.74023 14.9502Z" fill="#FEFEFE"/>
</svg>
