<svg width="22" height="17" viewBox="0 0 22 17" fill="none" xmlns="http://www.w3.org/2000/svg">
<path d="M5.92383 16.1807C4.20117 16.1807 3.42773 15.3809 3.17285 13.6494L1.86328 4.83398H1.66992C0.588867 4.83398 0 4.15723 0 3.08496V1.74902C0 0.676758 0.641602 0 1.66992 0H19.415C20.4961 0 21.085 0.676758 21.085 1.74902V3.08496C21.085 4.15723 20.4961 4.83398 19.415 4.83398H19.2129L17.9121 13.6494C17.6484 15.3721 16.8838 16.1807 15.1523 16.1807H5.92383ZM2.03027 3.50684H19.0635C19.5029 3.50684 19.6699 3.32227 19.6699 2.88281V1.95117C19.6699 1.51172 19.5029 1.32715 19.0635 1.32715H2.03027C1.59082 1.32715 1.41504 1.51172 1.41504 1.95117V2.88281C1.41504 3.32227 1.59082 3.50684 2.03027 3.50684ZM5.9502 14.8535H15.1348C15.9082 14.8535 16.374 14.502 16.5059 13.6318L17.8154 4.83398H3.26953L4.5791 13.6318C4.70215 14.502 5.15918 14.8535 5.9502 14.8535ZM7.98926 12.9463C7.62012 12.9463 7.3125 12.6299 7.3125 12.2695C7.3125 12.0674 7.40039 11.9268 7.52344 11.7949L9.60645 9.71191L7.52344 7.62891C7.40039 7.50586 7.3125 7.34766 7.3125 7.16309C7.3125 6.79395 7.62012 6.50391 7.99805 6.50391C8.17383 6.50391 8.31445 6.57422 8.45508 6.69727L10.5381 8.78027L12.6299 6.69727C12.7617 6.57422 12.9111 6.50391 13.0869 6.50391C13.4648 6.50391 13.7725 6.79395 13.7725 7.16309C13.7725 7.34766 13.6846 7.50586 13.5615 7.62891L11.4785 9.71191L13.5615 11.7949C13.6846 11.9268 13.7725 12.0674 13.7725 12.2695C13.7725 12.6299 13.4648 12.9463 13.0957 12.9463C12.9023 12.9463 12.7441 12.8584 12.6211 12.7354L10.5381 10.6523L8.46387 12.7354C8.33203 12.8584 8.18262 12.9463 7.98926 12.9463Z" fill="#FEFEFE"/>
</svg>
