<svg width="24" height="24" viewBox="0 0 24 24" fill="none" xmlns="http://www.w3.org/2000/svg">
<path d="M7.33301 21.0762C5.51367 21.0762 4.6084 20.1621 4.6084 18.3252V4.99219C4.6084 3.16406 5.52246 2.23242 7.33301 2.23242H11.5078C12.4922 2.23242 13.0459 2.38184 13.7139 3.06738L18.5566 7.99805C19.2598 8.71875 19.3916 9.21094 19.3916 10.3447V18.3252C19.3916 20.1533 18.4863 21.0762 16.667 21.0762H7.33301ZM7.39453 19.6611H16.5967C17.5107 19.6611 17.9766 19.1777 17.9766 18.2988V10.4062H12.9668C11.8682 10.4062 11.3145 9.86133 11.3145 8.75391V3.64746H7.40332C6.48926 3.64746 6.02344 4.14844 6.02344 5.01855V18.2988C6.02344 19.1777 6.48926 19.6611 7.39453 19.6611ZM13.125 9.0791H17.7041L12.6416 3.91992V8.58691C12.6416 8.93848 12.7734 9.0791 13.125 9.0791ZM15.2344 12.832C15.542 12.832 15.7705 13.0693 15.7705 13.3682C15.7705 13.6758 15.542 13.9131 15.2344 13.9131H8.56348C8.24707 13.9131 8.00977 13.6758 8.00977 13.3682C8.00977 13.0693 8.24707 12.832 8.56348 12.832H15.2344ZM15.2344 15.8994C15.542 15.8994 15.7705 16.1455 15.7705 16.4531C15.7705 16.752 15.542 16.9805 15.2344 16.9805H8.56348C8.24707 16.9805 8.00977 16.752 8.00977 16.4531C8.00977 16.1455 8.24707 15.8994 8.56348 15.8994H15.2344Z" fill="#1C1C25"/>
</svg>
