<svg width="24" height="24" viewBox="0 0 24 24" fill="none" xmlns="http://www.w3.org/2000/svg">
<path d="M11.9912 14.1943C11.6133 14.1943 11.2969 13.8867 11.2969 13.5176V4.57031L11.3584 3.24316L10.8574 3.7793L9.49512 5.22949C9.37207 5.37012 9.17871 5.44043 9.01172 5.44043C8.64258 5.44043 8.37891 5.17676 8.37891 4.8252C8.37891 4.63184 8.45801 4.49121 8.58984 4.35938L11.4814 1.56445C11.666 1.38867 11.8154 1.33594 11.9912 1.33594C12.1758 1.33594 12.3252 1.38867 12.501 1.56445L15.4014 4.35938C15.5332 4.49121 15.6035 4.63184 15.6035 4.8252C15.6035 5.17676 15.3311 5.44043 14.9619 5.44043C14.7949 5.44043 14.6104 5.37012 14.4873 5.22949L13.1338 3.7793L12.6328 3.25195L12.6943 4.57031V13.5176C12.6943 13.8867 12.3691 14.1943 11.9912 14.1943ZM7.86914 21.0762C5.50488 21.0762 4.19531 19.7578 4.19531 17.4023V10.6348C4.19531 8.27051 5.50488 6.96094 7.86914 6.96094H9.64453V8.37598H7.86914C6.42773 8.37598 5.61035 9.18457 5.61035 10.6348V17.4023C5.61035 18.8525 6.42773 19.6611 7.86914 19.6611H16.1133C17.5635 19.6611 18.3809 18.8525 18.3809 17.4023V10.6348C18.3809 9.18457 17.5635 8.37598 16.1133 8.37598H14.3379V6.96094H16.1133C18.4775 6.96094 19.7959 8.27051 19.7959 10.6348V17.4023C19.7959 19.7578 18.4775 21.0762 16.1133 21.0762H7.86914Z" fill="#1C1C25"/>
</svg>
