<svg width="24" height="24" viewBox="0 0 24 24" fill="none" xmlns="http://www.w3.org/2000/svg">
<path d="M3.43945 18.0527L5.38184 10.2041C5.69824 8.91211 6.63867 8.16504 7.94824 8.16504H11.2881V7.26855C10.2598 6.96094 9.48633 6.00293 9.48633 4.87793C9.48633 3.50684 10.6289 2.36426 12 2.36426C13.3623 2.36426 14.5137 3.50684 14.5137 4.87793C14.5137 6.00293 13.7402 6.96094 12.7031 7.26855V8.16504H16.0518C17.3613 8.16504 18.293 8.91211 18.6182 10.2041L20.5605 18.0527C21.0176 19.8809 20.2441 20.9355 18.4775 20.9355H5.52246C3.75586 20.9355 2.98242 19.8809 3.43945 18.0527ZM12 6.15234C12.7031 6.15234 13.2832 5.57227 13.2832 4.87793C13.2832 4.18359 12.6943 3.58594 12 3.58594C11.2969 3.58594 10.7168 4.18359 10.7168 4.87793C10.7168 5.57227 11.3057 6.15234 12 6.15234ZM4.81055 18.1406C4.57324 19.0459 4.9248 19.5205 5.69824 19.5205H18.293C19.0752 19.5205 19.4268 19.0459 19.1895 18.1406L17.2998 10.6963C17.1064 9.94043 16.6758 9.58008 15.9463 9.58008H8.05371C7.32422 9.58008 6.89355 9.94043 6.7002 10.6963L4.81055 18.1406Z" fill="#FEFEFE"/>
</svg>
