<svg width="18" height="17" viewBox="0 0 18 17" fill="none" xmlns="http://www.w3.org/2000/svg">
<path d="M2.75977 16.1807C0.922852 16.1807 0 15.2754 0 13.4561V2.72461C0 0.905273 0.922852 0 2.75977 0H14.7656C16.6025 0 17.5166 0.914062 17.5166 2.72461V13.4561C17.5166 15.2666 16.6025 16.1807 14.7656 16.1807H2.75977ZM2.62793 14.7656H14.8799C15.6621 14.7656 16.1016 14.3525 16.1016 13.5352V5.24707C16.1016 4.43848 15.6621 4.0166 14.8799 4.0166H2.62793C1.8457 4.0166 1.41504 4.43848 1.41504 5.24707V13.5352C1.41504 14.3525 1.8457 14.7656 2.62793 14.7656ZM7.04883 7.17188C6.74121 7.17188 6.63574 7.08398 6.63574 6.77637V6.25781C6.63574 5.9502 6.74121 5.85352 7.04883 5.85352H7.56738C7.875 5.85352 7.97168 5.9502 7.97168 6.25781V6.77637C7.97168 7.08398 7.875 7.17188 7.56738 7.17188H7.04883ZM9.9668 7.17188C9.65918 7.17188 9.55371 7.08398 9.55371 6.77637V6.25781C9.55371 5.9502 9.65918 5.85352 9.9668 5.85352H10.4854C10.793 5.85352 10.8984 5.9502 10.8984 6.25781V6.77637C10.8984 7.08398 10.793 7.17188 10.4854 7.17188H9.9668ZM12.8848 7.17188C12.5771 7.17188 12.4805 7.08398 12.4805 6.77637V6.25781C12.4805 5.9502 12.5771 5.85352 12.8848 5.85352H13.4033C13.7109 5.85352 13.8164 5.9502 13.8164 6.25781V6.77637C13.8164 7.08398 13.7109 7.17188 13.4033 7.17188H12.8848ZM4.13086 10.0459C3.81445 10.0459 3.71777 9.95801 3.71777 9.65039V9.13184C3.71777 8.82422 3.81445 8.73633 4.13086 8.73633H4.64062C4.95703 8.73633 5.05371 8.82422 5.05371 9.13184V9.65039C5.05371 9.95801 4.95703 10.0459 4.64062 10.0459H4.13086ZM7.04883 10.0459C6.74121 10.0459 6.63574 9.95801 6.63574 9.65039V9.13184C6.63574 8.82422 6.74121 8.73633 7.04883 8.73633H7.56738C7.875 8.73633 7.97168 8.82422 7.97168 9.13184V9.65039C7.97168 9.95801 7.875 10.0459 7.56738 10.0459H7.04883ZM9.9668 10.0459C9.65918 10.0459 9.55371 9.95801 9.55371 9.65039V9.13184C9.55371 8.82422 9.65918 8.73633 9.9668 8.73633H10.4854C10.793 8.73633 10.8984 8.82422 10.8984 9.13184V9.65039C10.8984 9.95801 10.793 10.0459 10.4854 10.0459H9.9668ZM12.8848 10.0459C12.5771 10.0459 12.4805 9.95801 12.4805 9.65039V9.13184C12.4805 8.82422 12.5771 8.73633 12.8848 8.73633H13.4033C13.7109 8.73633 13.8164 8.82422 13.8164 9.13184V9.65039C13.8164 9.95801 13.7109 10.0459 13.4033 10.0459H12.8848ZM4.13086 12.9287C3.81445 12.9287 3.71777 12.832 3.71777 12.5244V12.0059C3.71777 11.6982 3.81445 11.6104 4.13086 11.6104H4.64062C4.95703 11.6104 5.05371 11.6982 5.05371 12.0059V12.5244C5.05371 12.832 4.95703 12.9287 4.64062 12.9287H4.13086ZM7.04883 12.9287C6.74121 12.9287 6.63574 12.832 6.63574 12.5244V12.0059C6.63574 11.6982 6.74121 11.6104 7.04883 11.6104H7.56738C7.875 11.6104 7.97168 11.6982 7.97168 12.0059V12.5244C7.97168 12.832 7.875 12.9287 7.56738 12.9287H7.04883ZM9.9668 12.9287C9.65918 12.9287 9.55371 12.832 9.55371 12.5244V12.0059C9.55371 11.6982 9.65918 11.6104 9.9668 11.6104H10.4854C10.793 11.6104 10.8984 11.6982 10.8984 12.0059V12.5244C10.8984 12.832 10.793 12.9287 10.4854 12.9287H9.9668Z" fill="#FEFEFE"/>
</svg>
